# xmcd CD database file
#
# Track frame offsets:
# 150
# 13977
# 27760
# 53108
# 78435
# 95987
# 113633
# 129997
# 146347
# 159113
# 171901
# 191191
# 210413
# 219740
# 229069
# 247546
# 266023
# 279420
#
# Disc length: 3743 seconds
# Revision: 2
# Processed by: cddbd v1.5.2PL0 Copyright (c) Steve Scherf et al.
# Submitted via: MusicBin 0.4
#
DISCID=f40e9d12
DTITLE=Hal Leonard - Hal Leonard Guitar Play-Along: Funk, Vol. 52
DYEAR=2008
DGENRE=Instructional
TTITLE0=Cissy Strut Demo Track
TTITLE1=Cissy Strut Play-Along Track
TTITLE2=Flashlight Demo Track
TTITLE3=Flashlight Play-Along Track
TTITLE4=Funk #49 Demo Track
TTITLE5=Funk #49 Demo Track
TTITLE6=I Just Want To Celebrate Demo Track
TTITLE7=I Just Want To Celebrate Play-Along Track
TTITLE8=It's Your Thing Demo Track
TTITLE9=It's Your Thing Play-Along Track
TTITLE10=Le Freak Demo Track
TTITLE11=Le Freak Play-Along Track
TTITLE12=Papa's Got A Brand New Bag Demo Track
TTITLE13=Papa's Got A Brand New Bag Play-Along Track
TTITLE14=Pick Up The Pieces Demo Track
TTITLE15=Pick Up The Pieces Play-Along Track
TTITLE16=Tuning Notes
TTITLE17=Data Track
EXTD=
EXTT0=
EXTT1=
EXTT2=
EXTT3=
EXTT4=
EXTT5=
EXTT6=
EXTT7=
EXTT8=
EXTT9=
EXTT10=
EXTT11=
EXTT12=
EXTT13=
EXTT14=
EXTT15=
EXTT16=
EXTT17=
PLAYORDER=
